<svg id="source" width="12" height="12" viewBox="0 0 12 12" fill="none" xmlns="http://www.w3.org/2000/svg">
<circle cx="6" cy="6" r="6" fill="#E60023"></circle>
<path fill-rule="evenodd" clip-rule="evenodd" d="M0 6C0 8.5615 1.6055 10.7485 3.865 11.609C3.81 11.1405 3.7515 10.368 3.8775 9.826C3.986 9.36 4.578 6.857 4.578 6.857C4.578 6.857 4.3995 6.4995 4.3995 5.97C4.3995 5.14 4.8805 4.52 5.48 4.52C5.99 4.52 6.236 4.9025 6.236 5.361C6.236 5.8735 5.9095 6.6395 5.741 7.35C5.6005 7.9445 6.0395 8.4295 6.6255 8.4295C7.687 8.4295 8.5035 7.31 8.5035 5.694C8.5035 4.2635 7.4755 3.264 6.008 3.264C4.309 3.264 3.3115 4.5385 3.3115 5.856C3.3115 6.3695 3.509 6.9195 3.756 7.219C3.8045 7.2785 3.812 7.33 3.7975 7.3905C3.752 7.5795 3.651 7.985 3.6315 8.068C3.605 8.177 3.545 8.2005 3.4315 8.1475C2.6855 7.8005 2.2195 6.71 2.2195 5.834C2.2195 3.9495 3.588 2.2195 6.1655 2.2195C8.2375 2.2195 9.848 3.696 9.848 5.669C9.848 7.7275 8.5505 9.3845 6.7485 9.3845C6.143 9.3845 5.5745 9.0695 5.3795 8.698C5.3795 8.698 5.08 9.839 5.0075 10.118C4.8665 10.66 4.4755 11.346 4.233 11.7355C4.792 11.9075 5.385 12 6 12C9.3135 12 12 9.3135 12 6C12 2.6865 9.3135 0 6 0C2.6865 0 0 2.6865 0 6Z" fill="white"></path>
</svg>